<svg width="190" height="190" viewBox="0 0 190 190" fill="none" xmlns="http://www.w3.org/2000/svg">
<path d="M95 190C147.467 190 190 147.467 190 95C190 42.5329 147.467 0 95 0C42.5329 0 0 42.5329 0 95C0 147.467 42.5329 190 95 190Z" fill="#366AF3"/>
<path fill-rule="evenodd" clip-rule="evenodd" d="M136.499 119.392C149.279 95.9568 147.03 62.1517 147.03 62.1517C147.03 62.1517 137.999 59.3535 132.669 54.9965C127.339 50.6395 124.052 43.3695 124.052 43.3695H66.6063C66.6063 43.3695 63.8581 50.1996 57.9894 54.9965C52.1207 59.7936 43.6279 62.1517 43.6279 62.1517C43.6279 62.1517 40.7595 94.8201 54.1597 119.392C67.5598 143.964 95.3292 156.956 95.3292 156.956C95.3292 156.956 123.718 142.828 136.499 119.392ZM109.426 112.657C109.054 113.558 108.849 114.544 108.849 115.577C108.849 119.842 112.345 123.302 116.657 123.302C120.968 123.302 124.465 119.842 124.465 115.577C124.465 111.311 120.968 107.85 116.657 107.85C115.103 107.85 113.654 108.3 112.437 109.075L110.001 107.214C110.696 102.401 104.684 100.31 104.684 100.31C104.343 96.597 104.072 98.1104 110.727 96.8927C111.421 96.7628 114.883 101.26 114.883 101.26C134.073 102.353 128.388 71.2975 128.388 71.2975L110.727 82.3933C110.727 82.3933 112.766 88.2698 106.41 88.2058C104.833 88.2176 104.132 86.9768 103.888 85.3498C103.485 77.9068 104.874 75.2284 111.077 75.153C111.077 75.153 113.878 74.9219 114.964 76.6414C116.118 78.4673 116.738 70.6606 112.424 69.5664C112.429 69.4636 112.426 69.3591 112.416 69.2535C112.257 67.6414 110.31 66.3255 108.023 66.2459H97.8801C97.8801 66.2459 97.0228 68.1523 101.714 69.5664C97.5096 71.0761 95.7695 73.418 95.2542 78.642C94.9791 73.2055 93.4593 70.7209 88.5476 69.5664C93.2381 68.1523 92.9506 66.2459 92.9506 66.2459H82.2377C79.9505 66.3255 78.0045 67.6414 77.8454 69.2535C77.8349 69.3591 77.8324 69.4636 77.8376 69.5664C73.5227 70.6606 74.1435 78.4673 75.297 76.6414C76.3833 74.9219 79.1839 75.153 79.1839 75.153C85.063 75.2245 86.6174 77.634 86.4212 84.2218C86.1579 86.3853 85.1596 88.3607 82.361 88.2397C77.2238 88.5018 79.3576 82.3933 79.3576 82.3933L61.3421 71.2975C61.3421 71.2975 55.4316 101.399 73.3674 101.399C73.3674 101.399 78.4518 96.7647 79.1624 96.8927C85.9634 98.1141 85.54 96.5894 85.1951 100.31C85.1951 100.31 79.1624 103.717 80.1263 107.015L73.3094 111.691L67.9772 103.717C67.2598 102.644 65.8083 102.356 64.7352 103.074C63.6623 103.791 63.374 105.242 64.0917 106.315L74.6805 122.15C75.3982 123.223 76.8496 123.511 77.9225 122.794C78.9956 122.076 79.2837 120.625 78.5662 119.552L75.9079 115.577L82.5035 111.052C86.4212 112.657 86.4213 107.85 89.5823 110.442C92.7433 113.035 82.9827 121.6 82.9827 121.6C82.9827 121.6 84.6084 127.865 94.6462 127.865C104.684 127.865 106.421 121.6 106.421 121.6C106.421 121.6 97.2347 113.511 100.509 110.442C102.963 108.141 105.296 111.387 107.368 111.084L109.426 112.657Z" fill="white"/>
</svg>
