<svg width="500" height="500" viewBox="0 0 500 500" fill="none" xmlns="http://www.w3.org/2000/svg">
<rect width="500" height="500" rx="80" fill="#BAC7E7"/>
<rect x="95" y="256" width="90" height="150" rx="10" fill="#0033A0"/>
<rect x="205" y="175" width="90" height="231" rx="10" fill="#0033A0"/>
<rect x="315" y="91" width="90" height="315" rx="10" fill="#0033A0"/>
<path d="M181.867 212.466C175.75 221.201 167.025 227.777 156.941 231.249C146.858 234.721 135.934 234.911 125.735 231.793C115.537 228.675 106.587 222.409 100.169 213.892C93.7508 205.375 90.1938 195.044 90.0077 184.381C89.8216 173.718 93.0159 163.27 99.1328 154.534C105.25 145.798 113.975 139.223 124.059 135.751C134.142 132.279 145.066 132.089 155.265 135.207C165.463 138.325 174.413 144.591 180.831 153.108L140.5 183.5L181.867 212.466Z" fill="#DA291C"/>
</svg>
